{"title":"The.Tourist.2010.CAM-Lu","uid":6051636,"size":724589192,"categoryP":"video","categoryS":"movies","magnet":"?xt=urn:btih:a3a7c6d6d9053e6458d4f054532f7d52e6c121bd&amp;dn=The.Tourist.2010.CAM-Lu&amp;tr=udp%3A%2F%2Ftracker.openbittorrent.com%3A80&amp;tr=udp%3A%2F%2Fopen.demonii.com%3A1337&amp;tr=udp%3A%2F%2Ftracker.coppersurfer.tk%3A6969&amp;tr=udp%3A%2F%2Fexodus.desync.com%3A6969","seeders":0,"leechers":1,"uploader":"TvTeam","files":-1,"time":1292757051,"description":". \n   &lt;a href=&quot;\nhttp://www.torrentday.com/&quot; rel=&quot;nofollow&quot; target=&quot;_NEW&quot;&gt;\nhttp://www.torrentday.com/&lt;/a&gt;        :     The Hottest Private Tracker On The Net!!!\n\n\n               www . TorrentDay . Com \n(((((((((((((= Enjoy No RAR releases =))))))))))))))))))))\n\n\n...................................NFO:....................................\n\n. \n\n\n\nGeneral\nComplete name                    : The.Tourist.2010.Cam.Lu.avi\nFormat                           : AVI\nFormat/Info                      : Audio Video Interleave\nFile size                        : 702 MiB\nDuration                         : 1h 35mn\nOverall bit rate                 : 1 022 Kbps\nDirector                         : TEAM-SERENiTY\nWriting application              : MEncoder SVN-r30881(20100311-gcc4.3.3)\nWriting library                  : VirtualDub build 32706/release\nCopyright                        : TEAM-SERENiTY\n\nVideo\nID                               : 0\nFormat                           : MPEG-4 Visual\nFormat profile                   : Advanced Simple@L5\nFormat settings, BVOP            : Yes\nFormat settings, QPel            : No\nFormat settings, GMC             : No warppoints\nFormat settings, Matrix          : Default (H.263)\nMuxing mode                      : Packed bitstream\nCodec ID                         : XVID\nCodec ID/Hint                    : XviD\nDuration                         : 1h 35mn\nBit rate                         : 885 Kbps\nWidth                            : 704 pixels\nHeight                           : 302 pixels\nDisplay aspect ratio             : 2.35:1\nFrame rate                       : 25.000 fps\nColor space                      : YUV\nChroma subsampling               : 4:2:0\nBit depth                        : 8 bits\nScan type                        : Progressive\nCompression mode                 : Lossy\nBits/(Pixel*Frame)               : 0.166\nStream size                      : 607 MiB (87%)\nWriting library                  : XviD 1.2.1 (UTC 2008-12-04)\n\nAudio\nID                               : 1\nFormat                           : MPEG Audio\nFormat version                   : Version 1\nFormat profile                   : Layer 3\nMode                             : Joint stereo\nMode extension                   : MS Stereo\nCodec ID                         : 55\nCodec ID/Hint                    : MP3\nDuration                         : 1h 35mn\nBit rate mode                    : Constant\nBit rate                         : 128 Kbps\nChannel(s)                       : 2 channels\nSampling rate                    : 48.0 KHz\nCompression mode                 : Lossy\nStream size                      : 87.8 MiB (13%)\nAlignment                        : Split accross interleaves\nInterleave, duration             : 40 ms (1.00 video frame)\nInterleave, preload duration     : 500 ms\n\nok this is english audio and my cam audio Lu and thanks for the video  -SERENiTY     \n\nnow with no work done on video i lev that for all theres so call encoders out there who cant\n\nget there own audio.\n\n with that said it cam audio not line but will do till some line comes around \n\nenjoy \n\n","torrent":{"xt":"urn:btih:a3a7c6d6d9053e6458d4f054532f7d52e6c121bd","amp;dn":"The.Tourist.2010.CAM-Lu","amp;tr":["udp%3A%2F%2Ftracker.openbittorrent.com%3A80","udp%3A%2F%2Fopen.demonii.com%3A1337","udp%3A%2F%2Ftracker.coppersurfer.tk%3A6969","udp%3A%2F%2Fexodus.desync.com%3A6969"],"infoHash":"a3a7c6d6d9053e6458d4f054532f7d52e6c121bd","infoHashBuffer":{"type":"Buffer","data":[163,167,198,214,217,5,62,100,88,212,240,84,83,47,125,82,230,193,33,189]},"announce":[],"urlList":[]}}